<svg height="512pt" viewBox="-41 0 512 512.001" width="512pt" xmlns="http://www.w3.org/2000/svg"><path d="m389.308594 123.011719v369.726562c0 6.496094-5.265625 11.761719-11.761719 11.761719h-324.859375c-6.496094 0-11.761719-5.265625-11.761719-11.761719v-473.476562c0-6.496094 5.265625-11.761719 11.761719-11.761719h221.121094zm0 0" fill="#21c69c"/><path d="m389.308594 123.011719v369.726562c0 6.492188-5.261719 11.761719-11.761719 11.761719h-31.6875c6.488281 0 11.757813-5.269531 11.757813-11.761719v-369.726562l-115.5-115.511719h31.691406zm0 0" fill="#12967e"/><path d="m285.835938 122.703125 103.472656.308594-115.5-115.511719.300781 103.472656c.019531 6.46875 5.257813 11.710938 11.726563 11.730469zm0 0" fill="#32dfb7"/><path d="m410.972656 332.800781h-391.710937c-6.496094 0-11.761719-5.265625-11.761719-11.761719v-130.078124c0-6.496094 5.265625-11.761719 11.761719-11.761719h391.710937c6.496094 0 11.761719 5.265625 11.761719 11.761719v130.078124c0 6.496094-5.265625 11.761719-11.761719 11.761719zm0 0" fill="#97ffe7"/><path d="m422.738281 190.960938v130.078124c0 6.5-5.269531 11.761719-11.769531 11.761719h-29c6.5 0 11.769531-5.261719 11.769531-11.761719v-130.078124c0-6.5-5.269531-11.761719-11.769531-11.761719h29c6.5 0 11.769531 5.261719 11.769531 11.761719zm0 0" fill="#32dfb7"/><path d="m240.117188 394h-145.5c-6.625 0-12-5.371094-12-12s5.375-12.003906 12-12.003906h145.5c6.628906 0 12 5.375 12 12.003906s-5.371094 12-12 12zm0 0" fill="#e3f4ff"/><path d="m40.925781 118.226562c4.140625 0 7.5-3.355468 7.5-7.5v-91.464843c0-2.351563 1.910157-4.261719 4.261719-4.261719h152.191406c4.140625 0 7.5-3.355469 7.5-7.5s-3.359375-7.5-7.5-7.5h-152.191406c-10.621094 0-19.261719 8.640625-19.261719 19.261719v91.464843c0 4.140626 3.355469 7.5 7.5 7.5zm0 0"/><path d="m410.972656 171.699219h-14.164062s-.03125-47.375-.074219-47.710938c.296875-2.273437-.445313-4.605469-2.121094-6.277343l-115.5-115.515626c-1.675781-1.671874-4.003906-2.417968-6.28125-2.117187-.335937-.046875-35.292969-.078125-35.292969-.078125-4.140624 0-7.5 3.355469-7.5 7.5s3.359376 7.5 7.5 7.5h28.792969l.277344 95.996094c.027344 10.558594 8.644531 19.175781 19.203125 19.207031l95.996094.285156v41.210938h-46.773438c-4.144531 0-7.5 3.355469-7.5 7.5 0 4.140625 3.355469 7.5 7.5 7.5h75.9375c2.351563 0 4.261719 1.910156 4.261719 4.261719v130.078124c0 2.351563-1.910156 4.261719-4.261719 4.261719h-391.710937c-2.347657 0-4.261719-1.910156-4.261719-4.261719v-130.078124c0-2.351563 1.914062-4.261719 4.261719-4.261719h283.113281c4.140625 0 7.5-3.359375 7.5-7.5 0-4.144531-3.359375-7.5-7.5-7.5h-253.949219v-28.3125c0-4.144531-3.359375-7.5-7.5-7.5-4.144531 0-7.5 3.355469-7.5 7.5v28.3125h-14.164062c-10.621094 0-19.261719 8.640625-19.261719 19.261719v130.078124c0 10.621094 8.640625 19.261719 19.261719 19.261719h14.164062v152.4375c0 10.621094 8.640625 19.261719 19.261719 19.261719h324.859375c10.621094 0 19.265625-8.640625 19.265625-19.261719v-152.4375h14.160156c10.621094 0 19.265625-8.640625 19.265625-19.261719v-130.078124c-.003906-10.621094-8.644531-19.261719-19.265625-19.261719zm-125.113281-56.496094c-2.335937-.007813-4.242187-1.914063-4.25-4.25l-.246094-85.292969 89.789063 89.796875zm95.949219 377.535156c0 2.351563-1.910156 4.261719-4.261719 4.261719h-324.859375c-2.351562 0-4.261719-1.910156-4.261719-4.261719v-152.4375h333.382813zm0 0"/><path d="m296.117188 377.5h46c4.144531 0 7.5-3.359375 7.5-7.5 0-4.144531-3.355469-7.5-7.5-7.5h-46c-4.144532 0-7.5 3.355469-7.5 7.5 0 4.140625 3.359374 7.5 7.5 7.5zm0 0"/><path d="m342.117188 386.5h-23c-4.144532 0-7.5 3.355469-7.5 7.5s3.355468 7.5 7.5 7.5h23c4.144531 0 7.5-3.355469 7.5-7.5s-3.355469-7.5-7.5-7.5zm0 0"/><path d="m342.117188 461.851562h-252.027344c-4.144532 0-7.5 3.359376-7.5 7.5 0 4.144532 3.355468 7.5 7.5 7.5h252.027344c4.144531 0 7.5-3.355468 7.5-7.5 0-4.140624-3.355469-7.5-7.5-7.5zm0 0"/><path d="m357.617188 251.125h21c4.144531 0 7.5-3.355469 7.5-7.5 0-4.140625-3.355469-7.5-7.5-7.5h-21c-4.144532 0-7.5 3.359375-7.5 7.5 0 4.144531 3.359374 7.5 7.5 7.5zm0 0"/><path d="m357.617188 275.875h21c4.144531 0 7.5-3.359375 7.5-7.5 0-4.144531-3.355469-7.5-7.5-7.5h-21c-4.144532 0-7.5 3.355469-7.5 7.5 0 4.140625 3.359374 7.5 7.5 7.5zm0 0"/><path d="m72.617188 236.125h-21c-4.140626 0-7.5 3.359375-7.5 7.5 0 4.144531 3.359374 7.5 7.5 7.5h21c4.140624 0 7.5-3.355469 7.5-7.5 0-4.140625-3.359376-7.5-7.5-7.5zm0 0"/><path d="m72.617188 260.875h-21c-4.140626 0-7.5 3.355469-7.5 7.5 0 4.140625 3.359374 7.5 7.5 7.5h21c4.140624 0 7.5-3.359375 7.5-7.5 0-4.144531-3.359376-7.5-7.5-7.5zm0 0"/><path d="m94.617188 401.5h145.5c10.753906 0 19.5-8.746094 19.5-19.5s-8.746094-19.5-19.5-19.5h-145.5c-10.75 0-19.5 8.746094-19.5 19.5s8.75 19.5 19.5 19.5zm0-24h145.5c2.480468 0 4.5 2.019531 4.5 4.5s-2.019532 4.5-4.5 4.5h-145.5c-2.480469 0-4.5-2.019531-4.5-4.5s2.019531-4.5 4.5-4.5zm0 0"/><path d="m225.007812 251.113281h17.902344c4.144532 0 7.5-3.355469 7.5-7.5 0-4.140625-3.355468-7.5-7.5-7.5h-17.902344c-10.777343 0-19.542968 8.769531-19.542968 19.542969 0 10.777344 8.769531 19.546875 19.542968 19.546875h3.253907c3.941406 0 7.148437 3.207031 7.148437 7.148437 0 3.941407-3.207031 7.148438-7.148437 7.148438h-15.296875c-4.140625 0-7.5 3.355469-7.5 7.5 0 4.140625 3.359375 7.5 7.5 7.5h15.296875c12.214843 0 22.148437-9.9375 22.148437-22.148438 0-12.210937-9.933594-22.148437-22.148437-22.148437h-3.253907c-2.503906 0-4.542968-2.039063-4.542968-4.546875 0-2.503906 2.039062-4.542969 4.542968-4.542969zm0 0"/><path d="m273.316406 251.113281h17.902344c4.144531 0 7.5-3.355469 7.5-7.5 0-4.140625-3.355469-7.5-7.5-7.5h-17.902344c-10.777344 0-19.546875 8.769531-19.546875 19.542969 0 10.777344 8.769531 19.546875 19.546875 19.546875h3.253906c3.941407 0 7.148438 3.207031 7.148438 7.148437 0 3.941407-3.207031 7.148438-7.148438 7.148438h-15.300781c-4.140625 0-7.5 3.355469-7.5 7.5 0 4.140625 3.359375 7.5 7.5 7.5h15.300781c12.214844 0 22.148438-9.9375 22.148438-22.148438 0-12.210937-9.9375-22.148437-22.148438-22.148437h-3.253906c-2.507812 0-4.546875-2.039063-4.546875-4.546875 0-2.503906 2.039063-4.542969 4.546875-4.542969zm0 0"/><path d="m164.296875 222.5c8.949219 0 17.363281 3.484375 23.691406 9.8125 2.925781 2.929688 7.675781 2.929688 10.605469 0s2.929688-7.675781 0-10.605469c-9.160156-9.160156-21.339844-14.207031-34.296875-14.207031-12.953125 0-25.132813 5.046875-34.292969 14.207031-9.160156 9.160157-14.207031 21.339844-14.207031 34.292969 0 12.957031 5.046875 25.136719 14.207031 34.296875s21.339844 14.203125 34.292969 14.203125c12.957031 0 25.136719-5.042969 34.296875-14.203125 2.929688-2.929687 2.929688-7.679687 0-10.609375-2.929688-2.925781-7.679688-2.925781-10.605469.003906-6.328125 6.324219-14.742187 9.8125-23.691406 9.8125-8.945313 0-17.359375-3.484375-23.6875-9.816406-13.0625-13.058594-13.0625-34.3125 0-47.375 6.328125-6.328125 14.742187-9.8125 23.6875-9.8125zm0 0"/><path d="m107.292969 38.363281c-2.925781-2.929687-7.675781-2.929687-10.605469 0l-24.664062 24.664063c-1.410157 1.410156-2.199219 3.316406-2.199219 5.304687 0 1.992188.789062 3.898438 2.199219 5.304688l24.664062 24.667969c1.464844 1.464843 3.386719 2.195312 5.304688 2.195312 1.917968 0 3.839843-.730469 5.300781-2.195312 2.929687-2.929688 2.929687-7.679688 0-10.609376l-19.363281-19.359374 19.363281-19.363282c2.929687-2.929687 2.929687-7.679687 0-10.609375zm0 0"/><path d="m152.605469 100.5c1.921875 0 3.839843-.730469 5.304687-2.195312l24.667969-24.667969c1.40625-1.40625 2.195313-3.3125 2.195313-5.304688 0-1.988281-.789063-3.894531-2.195313-5.304687l-24.667969-24.664063c-2.929687-2.929687-7.679687-2.929687-10.605468 0-2.929688 2.929688-2.929688 7.675781 0 10.605469l19.363281 19.363281-19.363281 19.363281c-2.929688 2.929688-2.929688 7.675782 0 10.605469 1.460937 1.46875 3.382812 2.199219 5.300781 2.199219zm0 0"/><path d="m116.902344 75.832031h.105468c4.140626 0 7.5-3.355469 7.5-7.5 0-4.140625-3.359374-7.5-7.5-7.5h-.105468c-4.140625 0-7.5 3.359375-7.5 7.5 0 4.144531 3.359375 7.5 7.5 7.5zm0 0"/><path d="m137.695312 60.832031h-.105468c-4.140625 0-7.5 3.359375-7.5 7.5 0 4.144531 3.359375 7.5 7.5 7.5h.105468c4.140626 0 7.5-3.355469 7.5-7.5 0-4.140625-3.359374-7.5-7.5-7.5zm0 0"/></svg>