<svg id="Layer_5" enable-background="new 0 0 64 64" height="512" viewBox="0 0 64 64" width="512" xmlns="http://www.w3.org/2000/svg"><g><g><g><path d="m12 2v16h-4v-8-8z" fill="#ffeaa7"/></g><g><path d="m8 36h4v26h-4z" fill="#ffeaa7"/></g><g><path d="m8 10v8h-2c-1.1 0-2.1-.45-2.83-1.17-.72-.73-1.17-1.73-1.17-2.83 0-2.21 1.79-4 4-4z" fill="#aab2bd"/></g><g><path d="m12 2h4v16h-4z" fill="#aab2bd"/></g><g><path d="m12 36h4v26h-4z" fill="#aab2bd"/></g><g><path d="m50 14v-12h-34v60h46v-32-16z" fill="#e6e9ed"/></g><g><path d="m36 6h4v4h-4z" fill="#aab2bd"/></g><g><path d="m28 6h4v4h-4z" fill="#aab2bd"/></g><g><path d="m20 6h4v4h-4z" fill="#aab2bd"/></g><g><path d="m62 14h-12v-12z" fill="#b4dd7f"/></g><g><path d="m38 18h-12-10-4-4-2c-1.1 0-2.1-.45-2.83-1.17-.72-.73-1.17-1.73-1.17-2.83v18c0 2.21 1.79 4 4 4h2 4 4 10 12c2.21 0 4-1.79 4-4v-2-8c0-2.21-1.79-4-4-4z" fill="#69d6f4"/></g><g><circle cx="42" cy="56" fill="#fcd770" r="2"/></g></g><g><path d="m50.414 1h-43.414v8h-1c-2.757 0-5 2.243-5 5v18c0 2.757 2.243 5 5 5h1v26h56v-49.414zm.586 3.414 8.586 8.586h-8.586zm-38 12.586v-14h2v14zm-2-14v14h-2v-14zm-5 8h1v6h-1c-1.654 0-3-1.346-3-3s1.346-3 3-3zm-3 21v-14.002c.836.629 1.875 1.002 3 1.002h32c1.654 0 3 1.346 3 3v10c0 1.654-1.346 3-3 3h-32c-1.654 0-3-1.346-3-3zm12 5v24h-2v-24zm-6 0h2v24h-2zm8 24v-24h21c2.757 0 5-2.243 5-5v-10c0-2.757-2.243-5-5-5h-21v-14h32v12h12v46z"/><path d="m11 21h-4v12h2v-4h2c2.206 0 4-1.794 4-4s-1.794-4-4-4zm0 6h-2v-4h2c1.103 0 2 .897 2 2s-.897 2-2 2z"/><path d="m33 21h-4v12h2v-4h2c2.206 0 4-1.794 4-4s-1.794-4-4-4zm0 6h-2v-4h2c1.103 0 2 .897 2 2s-.897 2-2 2z"/><path d="m25 26h-6v-5h-2v12h2v-5h6v5h2v-12h-2z"/><path d="m42.171 39h-.343c-2.111 0-3.828 1.718-3.828 3.828v.172h2v-.172c0-1.008.82-1.828 1.829-1.828h.343c1.008 0 1.828.82 1.828 1.828 0 .481-.195.952-.536 1.293l-2.464 2.465v4.414h2v-3.586l1.878-1.879c.724-.722 1.122-1.683 1.122-2.707 0-2.11-1.717-3.828-3.829-3.828z"/><path d="m42 53c-1.654 0-3 1.346-3 3s1.346 3 3 3 3-1.346 3-3-1.346-3-3-3zm0 4c-.551 0-1-.448-1-1s.449-1 1-1 1 .448 1 1-.449 1-1 1z"/><path d="m47.331 41.743 9.174 8.257-9.174 8.257 1.338 1.486 10.826-9.743-10.826-9.743z"/><path d="m35.331 40.257-10.826 9.743 10.826 9.743 1.338-1.486-9.174-8.257 9.174-8.257z"/><path d="m25 5h-6v6h6zm-2 4h-2v-2h2z"/><path d="m33 5h-6v6h6zm-2 4h-2v-2h2z"/><path d="m41 5h-6v6h6zm-2 4h-2v-2h2z"/><path d="m19 13h20v2h-20z"/><path d="m45 13h2v2h-2z"/><path d="m41 13h2v2h-2z"/><path d="m45 17h14v2h-14z"/><path d="m45 21h14v2h-14z"/><path d="m45 25h2v2h-2z"/><path d="m49 25h10v2h-10z"/><path d="m57 29h2v2h-2z"/><path d="m45 29h10v2h-10z"/><path d="m45 33h14v2h-14z"/></g></g></svg>